<?xml version="1.0" encoding="UTF-8" standalone="no"?>
<!DOCTYPE svg PUBLIC "-//W3C//DTD SVG 1.1//EN" "http://www.w3.org/Graphics/SVG/1.1/DTD/svg11.dtd">
<svg version="1.1"
    xmlns="http://www.w3.org/2000/svg"
    xmlns:xlink="http://www.w3.org/1999/xlink" viewBox="0 0 100 100">
    <path d="M1 99L1 1L99 1L99 99L1 99Z" fill="#1A2B0C"></path>
    <path d="M 42.901 68.565 L 42.901 76.396 L 11 76.396 L 11 20 L 42.901 20 L 42.901 27.792 L 20.219 27.792 L 20.219 43.145 L 41.474 43.145 L 41.474 50.859 L 20.219 50.859 L 20.219 68.565 L 42.901 68.565 Z" fill="#7BCA39"></path>
    <path d="M 89.344 52.209 L 89.344 57.108 L 60.915 57.108 Q 61.108 63.319 64.271 66.656 A 11.689 11.689 0 0 0 73.182 69.992 Q 76.962 69.992 80.221 69.279 A 36.901 36.901 0 0 0 87.223 66.906 L 87.223 74.274 A 27.832 27.832 0 0 1 80.511 76.511 A 41.157 41.157 0 0 1 72.757 77.167 A 20.638 20.638 0 0 1 57.193 71.362 Q 51.58 65.556 51.58 55.373 A 24.326 24.326 0 0 1 56.626 39.128 A 18.314 18.314 0 0 1 56.788 38.94 A 17.987 17.987 0 0 1 71.099 32.961 A 17.58 17.58 0 0 1 84.445 38.091 A 19.604 19.604 0 0 1 89.344 52.209 Z M 61.069 50.551 L 80.434 50.551 A 11.809 11.809 0 0 0 77.888 42.547 A 8.708 8.708 0 0 0 71.099 39.827 Q 66.778 39.827 64.175 42.566 Q 61.571 45.305 61.069 50.551 Z" fill="#7BCA39"></path>
    <path d="M0 100L0 0L100 0L100 100L0 100ZM4 97L97 97L97 3L3 3L3 97Z" fill="#7BCA39"></path>
</svg>